<?xml version="1.0" ?>
<!DOCTYPE svg  PUBLIC '-//W3C//DTD SVG 1.1//EN'  'http://www.w3.org/Graphics/SVG/1.1/DTD/svg11.dtd'>
<!-- Uploaded to: SVG Repo, www.svgrepo.com, Generator: SVG Repo Mixer Tools -->
<svg fill="#000000" width="800px" height="800px" viewBox="0 0 846.66 846.66" style="shape-rendering:geometricPrecision; text-rendering:geometricPrecision; image-rendering:optimizeQuality; fill-rule:evenodd; clip-rule:evenodd" version="1.1" xml:space="preserve" xmlns="http://www.w3.org/2000/svg" xmlns:xlink="http://www.w3.org/1999/xlink">
<defs>
<style type="text/css">
   <![CDATA[
    .fil0 {fill:black;fill-rule:nonzero}
   ]]>
  </style>
</defs>
<g id="Layer_x0020_1">
<path class="fil0" d="M539.75 794.68c27.15,0 27.15,41.29 0,41.29l-497.47 0c-11.4,0 -20.64,-9.25 -20.64,-20.65l0 -621.69c0,-5.7 2.31,-10.87 6.04,-14.6l162.3 -162.29c4.03,-4.03 9.31,-6.05 14.59,-6.05l466.89 0c11.4,0 20.65,9.25 20.65,20.65l0 361.36c0,27.16 -41.29,27.16 -41.29,0l0 -340.72 -437.7 0 -150.19 150.2 0 592.5 476.82 0zm-351.21 -181.98c-27.16,0 -27.16,-41.29 0,-41.29l306.67 0c27.16,0 27.16,41.29 0,41.29l-306.67 0zm0 -274.68c-27.16,0 -27.16,-41.29 0,-41.29l306.67 0c27.16,0 27.16,41.29 0,41.29l-306.67 0zm0 91.56c-27.16,0 -27.16,-41.29 0,-41.29l306.67 0c27.16,0 27.16,41.29 0,41.29l-306.67 0zm0 91.56c-27.16,0 -27.16,-41.29 0,-41.29l306.67 0c27.16,0 27.16,41.29 0,41.29l-306.67 0zm0 -274.68c-27.16,0 -27.16,-41.29 0,-41.29l306.67 0c27.16,0 27.16,41.29 0,41.29l-306.67 0zm496.57 238.25c49.84,0 90.24,40.4 90.24,90.24 0,18.1 -5.33,34.95 -14.5,49.07 37.57,24.93 61.47,66.08 64.13,111.2 1.59,27.06 -39.55,29.47 -41.13,2.42 -2.11,-35.69 -22.61,-67.48 -54.13,-84.24 -13.16,7.5 -28.38,11.78 -44.61,11.78 -17.56,0 -33.95,-5.01 -47.81,-13.69 -33.44,16.12 -55.6,49.04 -57.79,86.15 -1.59,27.05 -42.72,24.64 -41.13,-2.42 2.79,-47.18 28.75,-89.88 69.08,-114.28 -7.99,-13.47 -12.58,-29.19 -12.58,-45.99 0,-49.83 40.4,-90.24 90.23,-90.24zm0 41.29c-27.03,0 -48.94,21.92 -48.94,48.95 0,27.03 21.91,48.94 48.94,48.94 27.03,0 48.95,-21.91 48.95,-48.94 0,-27.03 -21.91,-48.95 -48.95,-48.95z"/>
</g>
</svg>